<svg width="923" height="153" viewBox="0 0 923 153" fill="none"
    xmlns="http://www.w3.org/2000/svg">
    <path d="M13 10V2H5.68519C2.54534 2 0 4.54534 0 7.68519V145.315C0 148.455 2.54534 151 5.68519 151H915.315C918.455 151 921 148.455 921 145.315V7.68518C921 4.54534 918.455 2 915.315 2H906V10" stroke="#E7EBF4" stroke-width="2.43651"/>
    <path d="M31.209 10.6667L28.5007 13.375L25.7923 10.6667" stroke="#E7EBF4" stroke-width="2.43651" stroke-linecap="round" stroke-linejoin="round"/>
    <path d="M28.5 3.625L28.5 13.375" stroke="#E7EBF4" stroke-width="2.43651" stroke-linecap="round" stroke-linejoin="round"/>
    <path d="M896.209 10.6667L893.501 13.375L890.792 10.6667" stroke="#E7EBF4" stroke-width="2.43651" stroke-linecap="round" stroke-linejoin="round"/>
    <path d="M893.5 3.625L893.5 13.375" stroke="#E7EBF4" stroke-width="2.43651" stroke-linecap="round" stroke-linejoin="round"/>
    <mask id="path-6-inside-1_3579_15421" fill="white">
        <path d="M82 151L40 151L40 126L82 126L82 151Z"/>
    </mask>
    <path d="M82 151L82 153.437L84.4365 153.437L84.4365 151L82 151ZM40 151L37.5635 151L37.5635 153.437L40 153.437L40 151ZM82 148.563L40 148.563L40 153.437L82 153.437L82 148.563ZM42.4365 151L42.4365 126L37.5635 126L37.5635 151L42.4365 151ZM79.5635 126L79.5635 151L84.4365 151L84.4365 126L79.5635 126Z" fill="#E7EBF4" mask="url(#path-6-inside-1_3579_15421)"/>
    <mask id="path-8-inside-2_3579_15421" fill="white">
        <path d="M122 151L80 151L80 126L122 126L122 151Z"/>
    </mask>
    <path d="M122 151L122 153.437L124.437 153.437L124.437 151L122 151ZM80 151L77.5635 151L77.5635 153.437L80 153.437L80 151ZM122 148.563L80 148.563L80 153.437L122 153.437L122 148.563ZM82.4365 151L82.4365 126L77.5635 126L77.5635 151L82.4365 151ZM119.563 126L119.563 151L124.437 151L124.437 126L119.563 126Z" fill="#E7EBF4" mask="url(#path-8-inside-2_3579_15421)"/>
    <mask id="path-10-inside-3_3579_15421" fill="white">
        <path d="M879 151L837 151L837 126L879 126L879 151Z"/>
    </mask>
    <path d="M879 151L879 153.437L881.437 153.437L881.437 151L879 151ZM837 151L834.563 151L834.563 153.437L837 153.437L837 151ZM879 148.563L837 148.563L837 153.437L879 153.437L879 148.563ZM839.437 151L839.437 126L834.563 126L834.563 151L839.437 151ZM876.563 126L876.563 151L881.437 151L881.437 126L876.563 126Z" fill="#E7EBF4" mask="url(#path-10-inside-3_3579_15421)"/>
    <g clip-path="url(#clip0_3579_15421)">
        <path d="M57 130C56.75 130 57.0406 130.241 57 130H58C58.3063 130 58.0406 129.297 58 129C57.8812 128.119 57.6312 127.641 57 127C56.55 126.541 57.0875 125.632 57 125C56.9656 124.753 56.2562 125 56 125C55.6937 125 54.9656 125.703 55 126C55.1219 126.997 55.2938 127.278 56 128C56.375 128.382 56.9156 129.482 57 130ZM60 130C60.0406 130.241 60.75 130 61 130C61.3062 130 62.0406 129.297 62 129C61.8813 128.119 61.6313 127.641 61 127C60.55 126.541 60.0875 125.632 60 125C59.9656 124.753 60.2562 125 60 125H59C58.6937 125 58.9625 125.703 59 126C59.1219 126.997 59.2937 127.278 60 128C60.375 128.382 59.9156 129.482 60 130ZM66 131H54C53.4469 131 53 131.447 53 132V138C53 139.657 54.3438 141 56 141H62C63.6562 141 65 139.657 65 138H66C67.9312 138 69 136.932 69 135C69 133.069 67.9312 131 66 131ZM66 136H65V133H66C66.8281 133 67 134.172 67 135C67 135.828 66.8281 136 66 136Z" fill="#D8DFF3"/>
    </g>
    <defs>
        <clipPath id="clip0_3579_15421">
            <rect width="16" height="16" fill="white" transform="translate(53 125)"/>
        </clipPath>
    </defs>
</svg>
